# xmcd
#
# Track frame offsets:
#	150
#	15222
#	30197
#	42825
#	54707
#	65950
#	80902
#	92062
#	104840
#	112542
#	125815
#	139462
#	150052
#	160720
#	170725
#	181267
#	192905
#	205247
#	219200
#	231197
#	244110
#	257170
#	271820
#	283540
#
# Disc length: 3977 seconds
#
# Revision: 0
# Processed by: cddbd v1.5.1PL2 Copyright (c) Steve Scherf et al.
# Submitted via: dBpowerAMP V4.0
#
DISCID=4d0f8718
DTITLE=Pedro Infante - Historia Musical
DYEAR=1900
DGENRE=Country
TTITLE0=Yo Mate a Juan Charrasqueado
TTITLE1=El Charro Chaparro
TTITLE2=Alma Jarocha
TTITLE3=Ahora Que me Siento Nylon
TTITLE4=Oh Que Amor
TTITLE5=Palabritas de Amor
TTITLE6=Ay Mis Cuates
TTITLE7=Cartas Marcadas
TTITLE8=Mi Suerte es Chaparra
TTITLE9=Ranchito de Mis Amores
TTITLE10=Jorge Negrete
TTITLE11=Dios si Existe
TTITLE12=El Ranchero
TTITLE13=El Vacilon
TTITLE14=Tercia de Ases
TTITLE15=Dicen Que Soy Mujeriego
TTITLE16=Perdon no Pido
TTITLE17=Amorcito Corazon
TTITLE18=Serenata
TTITLE19=Mi Adoracion
TTITLE20=Por A'i Por A'i
TTITLE21=Adios Mis Chorriadas
TTITLE22=Sus Ojitos
TTITLE23=Tu Solo Tu
EXTD=
EXTT0=
EXTT1=
EXTT2=
EXTT3=
EXTT4=
EXTT5=
EXTT6=
EXTT7=
EXTT8=
EXTT9=
EXTT10=
EXTT11=
EXTT12=
EXTT13=
EXTT14=
EXTT15=
EXTT16=
EXTT17=
EXTT18=
EXTT19=
EXTT20=
EXTT21=
EXTT22=
EXTT23=
PLAYORDER=
